<svg xmlns="http://www.w3.org/2000/svg" width="960" height="620" viewBox="0 0 960 620">
<style>text{font-family:Arial,Helvetica,sans-serif;fill:#111827}.small{font-size:13px}.label{font-size:15px}.title{font-size:22px;font-weight:700}.legend{font-size:14px}</style>
<rect width="100%" height="100%" fill="#FFFFFF"/>
<text class="title" x="82" y="30">TN scatter - m00</text>
<text class="small" x="930" y="30" text-anchor="end">actuator: Go2HV</text>
<line x1="82.0" y1="46" x2="82.0" y2="546" stroke="#D8DEE8" stroke-width="1"/>
<text class="small" x="82.0" y="570" text-anchor="middle">0.00</text>
<line x1="294.0" y1="46" x2="294.0" y2="546" stroke="#D8DEE8" stroke-width="1"/>
<text class="small" x="294.0" y="570" text-anchor="middle">100</text>
<line x1="506.0" y1="46" x2="506.0" y2="546" stroke="#D8DEE8" stroke-width="1"/>
<text class="small" x="506.0" y="570" text-anchor="middle">200</text>
<line x1="718.0" y1="46" x2="718.0" y2="546" stroke="#D8DEE8" stroke-width="1"/>
<text class="small" x="718.0" y="570" text-anchor="middle">300</text>
<line x1="930.0" y1="46" x2="930.0" y2="546" stroke="#D8DEE8" stroke-width="1"/>
<text class="small" x="930.0" y="570" text-anchor="middle">400</text>
<line x1="82" y1="546.0" x2="930" y2="546.0" stroke="#D8DEE8" stroke-width="1"/>
<text class="small" x="72" y="550.0" text-anchor="end">0.00</text>
<line x1="82" y1="379.3" x2="930" y2="379.3" stroke="#D8DEE8" stroke-width="1"/>
<text class="small" x="72" y="383.3" text-anchor="end">10.0</text>
<line x1="82" y1="212.7" x2="930" y2="212.7" stroke="#D8DEE8" stroke-width="1"/>
<text class="small" x="72" y="216.7" text-anchor="end">20.0</text>
<line x1="82" y1="46.0" x2="930" y2="46.0" stroke="#D8DEE8" stroke-width="1"/>
<text class="small" x="72" y="50.0" text-anchor="end">30.0</text>
<line x1="82" y1="546" x2="930" y2="546" stroke="#293241" stroke-width="1.5"/>
<line x1="82" y1="46" x2="82" y2="546" stroke="#293241" stroke-width="1.5"/>
<text class="label" x="506.0" y="598" text-anchor="middle">absolute speed (rpm)</text>
<text class="label" x="22" y="296.0" text-anchor="middle" transform="rotate(-90 22 296.0)">absolute torque (N*m)</text>
<polyline points="82.0,209.3 355.3,209.3 689.3,546.0" fill="none" stroke="#174EA6" stroke-width="3"/>
<polyline points="82.0,156.0 355.3,156.0 689.3,546.0" fill="none" stroke="#0E7C59" stroke-width="3" stroke-dasharray="8 5"/>
<circle cx="82.3" cy="543.2" r="2.2" fill="#276EF1" fill-opacity="0.58"/>
<circle cx="82.2" cy="544.1" r="2.2" fill="#12A150" fill-opacity="0.58"/>
<circle cx="82.1" cy="544.1" r="2.2" fill="#12A150" fill-opacity="0.58"/>
<circle cx="82.2" cy="544.1" r="2.2" fill="#276EF1" fill-opacity="0.58"/>
<circle cx="82.1" cy="544.1" r="2.2" fill="#276EF1" fill-opacity="0.58"/>
<circle cx="82.2" cy="544.1" r="2.2" fill="#12A150" fill-opacity="0.58"/>
<circle cx="82.2" cy="543.2" r="2.2" fill="#276EF1" fill-opacity="0.58"/>
<circle cx="82.2" cy="544.1" r="2.2" fill="#276EF1" fill-opacity="0.58"/>
<circle cx="82.4" cy="544.1" r="2.2" fill="#276EF1" fill-opacity="0.58"/>
<circle cx="82.1" cy="543.2" r="2.2" fill="#276EF1" fill-opacity="0.58"/>
<circle cx="82.0" cy="544.1" r="2.2" fill="#12A150" fill-opacity="0.58"/>
<circle cx="82.0" cy="543.2" r="2.2" fill="#12A150" fill-opacity="0.58"/>
<circle cx="82.2" cy="543.2" r="2.2" fill="#12A150" fill-opacity="0.58"/>
<circle cx="82.9" cy="543.2" r="2.2" fill="#12A150" fill-opacity="0.58"/>
<circle cx="82.4" cy="544.1" r="2.2" fill="#12A150" fill-opacity="0.58"/>
<circle cx="82.4" cy="544.1" r="2.2" fill="#276EF1" fill-opacity="0.58"/>
<circle cx="82.1" cy="543.2" r="2.2" fill="#276EF1" fill-opacity="0.58"/>
<circle cx="82.1" cy="543.2" r="2.2" fill="#12A150" fill-opacity="0.58"/>
<circle cx="82.3" cy="543.2" r="2.2" fill="#276EF1" fill-opacity="0.58"/>
<circle cx="82.1" cy="543.2" r="2.2" fill="#12A150" fill-opacity="0.58"/>
<circle cx="82.1" cy="543.2" r="2.2" fill="#276EF1" fill-opacity="0.58"/>
<circle cx="82.5" cy="544.1" r="2.2" fill="#276EF1" fill-opacity="0.58"/>
<circle cx="82.2" cy="543.2" r="2.2" fill="#12A150" fill-opacity="0.58"/>
<circle cx="82.5" cy="544.1" r="2.2" fill="#276EF1" fill-opacity="0.58"/>
<circle cx="82.1" cy="544.1" r="2.2" fill="#12A150" fill-opacity="0.58"/>
<circle cx="82.0" cy="543.2" r="2.2" fill="#12A150" fill-opacity="0.58"/>
<circle cx="82.2" cy="543.2" r="2.2" fill="#276EF1" fill-opacity="0.58"/>
<circle cx="82.1" cy="544.1" r="2.2" fill="#276EF1" fill-opacity="0.58"/>
<circle cx="82.4" cy="544.1" r="2.2" fill="#12A150" fill-opacity="0.58"/>
<circle cx="82.0" cy="544.1" r="2.2" fill="#276EF1" fill-opacity="0.58"/>
<circle cx="82.0" cy="543.2" r="2.2" fill="#276EF1" fill-opacity="0.58"/>
<circle cx="82.1" cy="543.2" r="2.2" fill="#12A150" fill-opacity="0.58"/>
<circle cx="82.3" cy="544.1" r="2.2" fill="#12A150" fill-opacity="0.58"/>
<circle cx="82.0" cy="544.1" r="2.2" fill="#12A150" fill-opacity="0.58"/>
<circle cx="82.2" cy="543.2" r="2.2" fill="#276EF1" fill-opacity="0.58"/>
<circle cx="82.5" cy="544.1" r="2.2" fill="#12A150" fill-opacity="0.58"/>
<circle cx="82.0" cy="544.1" r="2.2" fill="#12A150" fill-opacity="0.58"/>
<circle cx="82.3" cy="544.1" r="2.2" fill="#276EF1" fill-opacity="0.58"/>
<circle cx="82.2" cy="544.1" r="2.2" fill="#276EF1" fill-opacity="0.58"/>
<circle cx="82.4" cy="544.1" r="2.2" fill="#276EF1" fill-opacity="0.58"/>
<circle cx="82.2" cy="543.2" r="2.2" fill="#276EF1" fill-opacity="0.58"/>
<circle cx="82.1" cy="543.2" r="2.2" fill="#276EF1" fill-opacity="0.58"/>
<circle cx="82.3" cy="543.2" r="2.2" fill="#12A150" fill-opacity="0.58"/>
<circle cx="82.1" cy="543.2" r="2.2" fill="#276EF1" fill-opacity="0.58"/>
<circle cx="82.2" cy="543.2" r="2.2" fill="#12A150" fill-opacity="0.58"/>
<circle cx="82.2" cy="543.2" r="2.2" fill="#12A150" fill-opacity="0.58"/>
<circle cx="82.1" cy="544.1" r="2.2" fill="#276EF1" fill-opacity="0.58"/>
<circle cx="82.2" cy="544.1" r="2.2" fill="#276EF1" fill-opacity="0.58"/>
<circle cx="82.5" cy="543.2" r="2.2" fill="#12A150" fill-opacity="0.58"/>
<circle cx="82.2" cy="544.1" r="2.2" fill="#276EF1" fill-opacity="0.58"/>
<circle cx="82.1" cy="543.2" r="2.2" fill="#276EF1" fill-opacity="0.58"/>
<circle cx="82.0" cy="543.2" r="2.2" fill="#12A150" fill-opacity="0.58"/>
<circle cx="82.2" cy="543.2" r="2.2" fill="#276EF1" fill-opacity="0.58"/>
<circle cx="82.2" cy="543.2" r="2.2" fill="#276EF1" fill-opacity="0.58"/>
<circle cx="82.3" cy="544.1" r="2.2" fill="#12A150" fill-opacity="0.58"/>
<circle cx="82.1" cy="543.2" r="2.2" fill="#12A150" fill-opacity="0.58"/>
<circle cx="82.0" cy="544.1" r="2.2" fill="#276EF1" fill-opacity="0.58"/>
<circle cx="82.2" cy="544.1" r="2.2" fill="#12A150" fill-opacity="0.58"/>
<circle cx="82.6" cy="543.2" r="2.2" fill="#276EF1" fill-opacity="0.58"/>
<circle cx="82.1" cy="544.1" r="2.2" fill="#276EF1" fill-opacity="0.58"/>
<circle cx="82.1" cy="543.2" r="2.2" fill="#276EF1" fill-opacity="0.58"/>
<circle cx="82.0" cy="543.2" r="2.2" fill="#12A150" fill-opacity="0.58"/>
<circle cx="82.6" cy="544.1" r="2.2" fill="#12A150" fill-opacity="0.58"/>
<circle cx="82.2" cy="544.1" r="2.2" fill="#276EF1" fill-opacity="0.58"/>
<circle cx="82.2" cy="544.1" r="2.2" fill="#276EF1" fill-opacity="0.58"/>
<circle cx="82.5" cy="544.1" r="2.2" fill="#12A150" fill-opacity="0.58"/>
<circle cx="82.1" cy="544.1" r="2.2" fill="#276EF1" fill-opacity="0.58"/>
<circle cx="82.5" cy="543.2" r="2.2" fill="#276EF1" fill-opacity="0.58"/>
<circle cx="82.1" cy="543.2" r="2.2" fill="#12A150" fill-opacity="0.58"/>
<circle cx="82.4" cy="544.1" r="2.2" fill="#276EF1" fill-opacity="0.58"/>
<circle cx="82.5" cy="544.1" r="2.2" fill="#12A150" fill-opacity="0.58"/>
<circle cx="82.7" cy="544.1" r="2.2" fill="#276EF1" fill-opacity="0.58"/>
<circle cx="82.0" cy="543.2" r="2.2" fill="#12A150" fill-opacity="0.58"/>
<circle cx="82.7" cy="543.2" r="2.2" fill="#12A150" fill-opacity="0.58"/>
<circle cx="82.3" cy="544.1" r="2.2" fill="#276EF1" fill-opacity="0.58"/>
<circle cx="82.1" cy="543.2" r="2.2" fill="#12A150" fill-opacity="0.58"/>
<circle cx="82.2" cy="543.2" r="2.2" fill="#12A150" fill-opacity="0.58"/>
<circle cx="82.0" cy="543.2" r="2.2" fill="#12A150" fill-opacity="0.58"/>
<circle cx="82.5" cy="544.1" r="2.2" fill="#12A150" fill-opacity="0.58"/>
<circle cx="82.5" cy="543.2" r="2.2" fill="#276EF1" fill-opacity="0.58"/>
<circle cx="82.1" cy="543.2" r="2.2" fill="#12A150" fill-opacity="0.58"/>
<circle cx="82.3" cy="544.1" r="2.2" fill="#276EF1" fill-opacity="0.58"/>
<circle cx="82.1" cy="544.1" r="2.2" fill="#276EF1" fill-opacity="0.58"/>
<circle cx="82.1" cy="544.1" r="2.2" fill="#276EF1" fill-opacity="0.58"/>
<circle cx="82.1" cy="543.2" r="2.2" fill="#12A150" fill-opacity="0.58"/>
<circle cx="82.7" cy="544.1" r="2.2" fill="#12A150" fill-opacity="0.58"/>
<circle cx="82.0" cy="544.1" r="2.2" fill="#12A150" fill-opacity="0.58"/>
<circle cx="82.1" cy="544.1" r="2.2" fill="#276EF1" fill-opacity="0.58"/>
<circle cx="82.7" cy="544.1" r="2.2" fill="#12A150" fill-opacity="0.58"/>
<circle cx="82.2" cy="544.1" r="2.2" fill="#12A150" fill-opacity="0.58"/>
<circle cx="82.5" cy="544.1" r="2.2" fill="#276EF1" fill-opacity="0.58"/>
<circle cx="82.1" cy="544.1" r="2.2" fill="#12A150" fill-opacity="0.58"/>
<circle cx="82.1" cy="543.2" r="2.2" fill="#12A150" fill-opacity="0.58"/>
<circle cx="82.3" cy="543.2" r="2.2" fill="#12A150" fill-opacity="0.58"/>
<circle cx="82.4" cy="543.2" r="2.2" fill="#276EF1" fill-opacity="0.58"/>
<circle cx="82.5" cy="543.2" r="2.2" fill="#276EF1" fill-opacity="0.58"/>
<circle cx="82.1" cy="544.1" r="2.2" fill="#276EF1" fill-opacity="0.58"/>
<circle cx="82.5" cy="544.1" r="2.2" fill="#276EF1" fill-opacity="0.58"/>
<circle cx="82.3" cy="544.1" r="2.2" fill="#276EF1" fill-opacity="0.58"/>
<circle cx="82.0" cy="543.2" r="2.2" fill="#276EF1" fill-opacity="0.58"/>
<circle cx="82.3" cy="544.1" r="2.2" fill="#276EF1" fill-opacity="0.58"/>
<circle cx="82.7" cy="543.2" r="2.2" fill="#276EF1" fill-opacity="0.58"/>
<circle cx="82.3" cy="544.1" r="2.2" fill="#276EF1" fill-opacity="0.58"/>
<circle cx="82.3" cy="543.2" r="2.2" fill="#12A150" fill-opacity="0.58"/>
<circle cx="82.6" cy="543.2" r="2.2" fill="#276EF1" fill-opacity="0.58"/>
<circle cx="82.3" cy="544.1" r="2.2" fill="#12A150" fill-opacity="0.58"/>
<circle cx="82.6" cy="544.1" r="2.2" fill="#276EF1" fill-opacity="0.58"/>
<circle cx="82.2" cy="544.1" r="2.2" fill="#12A150" fill-opacity="0.58"/>
<circle cx="82.2" cy="543.2" r="2.2" fill="#12A150" fill-opacity="0.58"/>
<circle cx="82.2" cy="543.2" r="2.2" fill="#12A150" fill-opacity="0.58"/>
<circle cx="82.1" cy="544.1" r="2.2" fill="#276EF1" fill-opacity="0.58"/>
<circle cx="82.1" cy="544.1" r="2.2" fill="#276EF1" fill-opacity="0.58"/>
<circle cx="82.4" cy="544.1" r="2.2" fill="#12A150" fill-opacity="0.58"/>
<circle cx="82.2" cy="543.2" r="2.2" fill="#276EF1" fill-opacity="0.58"/>
<circle cx="82.2" cy="543.2" r="2.2" fill="#12A150" fill-opacity="0.58"/>
<circle cx="82.0" cy="544.1" r="2.2" fill="#12A150" fill-opacity="0.58"/>
<circle cx="82.1" cy="543.2" r="2.2" fill="#12A150" fill-opacity="0.58"/>
<circle cx="82.4" cy="544.1" r="2.2" fill="#276EF1" fill-opacity="0.58"/>
<circle cx="82.5" cy="544.1" r="2.2" fill="#276EF1" fill-opacity="0.58"/>
<circle cx="82.5" cy="543.2" r="2.2" fill="#12A150" fill-opacity="0.58"/>
<circle cx="82.5" cy="543.2" r="2.2" fill="#12A150" fill-opacity="0.58"/>
<circle cx="82.0" cy="544.1" r="2.2" fill="#12A150" fill-opacity="0.58"/>
<circle cx="82.0" cy="543.2" r="2.2" fill="#12A150" fill-opacity="0.58"/>
<circle cx="82.2" cy="544.1" r="2.2" fill="#12A150" fill-opacity="0.58"/>
<circle cx="82.3" cy="544.1" r="2.2" fill="#12A150" fill-opacity="0.58"/>
<circle cx="82.1" cy="544.1" r="2.2" fill="#276EF1" fill-opacity="0.58"/>
<circle cx="83.2" cy="543.2" r="2.2" fill="#12A150" fill-opacity="0.58"/>
<circle cx="82.0" cy="543.2" r="2.2" fill="#12A150" fill-opacity="0.58"/>
<circle cx="82.2" cy="544.1" r="2.2" fill="#12A150" fill-opacity="0.58"/>
<circle cx="82.0" cy="544.1" r="2.2" fill="#12A150" fill-opacity="0.58"/>
<circle cx="82.3" cy="543.2" r="2.2" fill="#12A150" fill-opacity="0.58"/>
<circle cx="83.8" cy="543.2" r="2.2" fill="#276EF1" fill-opacity="0.58"/>
<circle cx="82.4" cy="543.2" r="2.2" fill="#276EF1" fill-opacity="0.58"/>
<circle cx="82.3" cy="543.2" r="2.2" fill="#12A150" fill-opacity="0.58"/>
<circle cx="82.2" cy="544.1" r="2.2" fill="#12A150" fill-opacity="0.58"/>
<circle cx="82.0" cy="544.1" r="2.2" fill="#12A150" fill-opacity="0.58"/>
<circle cx="82.4" cy="544.1" r="2.2" fill="#276EF1" fill-opacity="0.58"/>
<circle cx="82.4" cy="543.2" r="2.2" fill="#276EF1" fill-opacity="0.58"/>
<circle cx="82.0" cy="543.2" r="2.2" fill="#12A150" fill-opacity="0.58"/>
<circle cx="82.2" cy="543.2" r="2.2" fill="#276EF1" fill-opacity="0.58"/>
<circle cx="82.0" cy="544.1" r="2.2" fill="#12A150" fill-opacity="0.58"/>
<circle cx="82.8" cy="543.2" r="2.2" fill="#276EF1" fill-opacity="0.58"/>
<circle cx="82.2" cy="544.1" r="2.2" fill="#12A150" fill-opacity="0.58"/>
<circle cx="82.5" cy="544.1" r="2.2" fill="#12A150" fill-opacity="0.58"/>
<circle cx="82.1" cy="543.2" r="2.2" fill="#276EF1" fill-opacity="0.58"/>
<circle cx="82.2" cy="543.2" r="2.2" fill="#12A150" fill-opacity="0.58"/>
<circle cx="82.6" cy="543.2" r="2.2" fill="#276EF1" fill-opacity="0.58"/>
<circle cx="82.1" cy="544.1" r="2.2" fill="#276EF1" fill-opacity="0.58"/>
<circle cx="82.1" cy="543.2" r="2.2" fill="#276EF1" fill-opacity="0.58"/>
<circle cx="82.0" cy="544.1" r="2.2" fill="#12A150" fill-opacity="0.58"/>
<circle cx="82.1" cy="544.1" r="2.2" fill="#276EF1" fill-opacity="0.58"/>
<circle cx="82.3" cy="544.1" r="2.2" fill="#276EF1" fill-opacity="0.58"/>
<circle cx="82.3" cy="543.2" r="2.2" fill="#276EF1" fill-opacity="0.58"/>
<circle cx="82.1" cy="543.2" r="2.2" fill="#276EF1" fill-opacity="0.58"/>
<circle cx="82.1" cy="544.1" r="2.2" fill="#276EF1" fill-opacity="0.58"/>
<circle cx="82.4" cy="544.1" r="2.2" fill="#276EF1" fill-opacity="0.58"/>
<circle cx="82.0" cy="544.1" r="2.2" fill="#12A150" fill-opacity="0.58"/>
<circle cx="82.1" cy="544.1" r="2.2" fill="#12A150" fill-opacity="0.58"/>
<circle cx="82.2" cy="544.1" r="2.2" fill="#12A150" fill-opacity="0.58"/>
<circle cx="82.1" cy="544.1" r="2.2" fill="#12A150" fill-opacity="0.58"/>
<circle cx="82.1" cy="543.2" r="2.2" fill="#276EF1" fill-opacity="0.58"/>
<circle cx="82.2" cy="543.2" r="2.2" fill="#276EF1" fill-opacity="0.58"/>
<circle cx="82.1" cy="544.1" r="2.2" fill="#12A150" fill-opacity="0.58"/>
<circle cx="82.5" cy="544.1" r="2.2" fill="#276EF1" fill-opacity="0.58"/>
<circle cx="82.2" cy="544.1" r="2.2" fill="#12A150" fill-opacity="0.58"/>
<circle cx="82.1" cy="544.1" r="2.2" fill="#276EF1" fill-opacity="0.58"/>
<circle cx="82.3" cy="543.2" r="2.2" fill="#276EF1" fill-opacity="0.58"/>
<circle cx="82.2" cy="543.2" r="2.2" fill="#276EF1" fill-opacity="0.58"/>
<circle cx="82.3" cy="544.1" r="2.2" fill="#276EF1" fill-opacity="0.58"/>
<circle cx="82.2" cy="542.3" r="2.2" fill="#12A150" fill-opacity="0.58"/>
<circle cx="82.6" cy="544.1" r="2.2" fill="#276EF1" fill-opacity="0.58"/>
<circle cx="82.2" cy="543.2" r="2.2" fill="#276EF1" fill-opacity="0.58"/>
<circle cx="82.2" cy="543.2" r="2.2" fill="#276EF1" fill-opacity="0.58"/>
<circle cx="82.1" cy="543.2" r="2.2" fill="#276EF1" fill-opacity="0.58"/>
<circle cx="82.1" cy="543.2" r="2.2" fill="#276EF1" fill-opacity="0.58"/>
<circle cx="82.0" cy="543.2" r="2.2" fill="#12A150" fill-opacity="0.58"/>
<circle cx="82.2" cy="542.3" r="2.2" fill="#276EF1" fill-opacity="0.58"/>
<circle cx="82.1" cy="542.3" r="2.2" fill="#12A150" fill-opacity="0.58"/>
<circle cx="82.0" cy="542.3" r="2.2" fill="#12A150" fill-opacity="0.58"/>
<circle cx="82.6" cy="544.1" r="2.2" fill="#276EF1" fill-opacity="0.58"/>
<circle cx="82.1" cy="543.2" r="2.2" fill="#12A150" fill-opacity="0.58"/>
<circle cx="82.4" cy="542.3" r="2.2" fill="#276EF1" fill-opacity="0.58"/>
<circle cx="82.2" cy="542.3" r="2.2" fill="#12A150" fill-opacity="0.58"/>
<circle cx="82.2" cy="542.3" r="2.2" fill="#12A150" fill-opacity="0.58"/>
<circle cx="82.1" cy="543.2" r="2.2" fill="#276EF1" fill-opacity="0.58"/>
<circle cx="82.2" cy="543.2" r="2.2" fill="#12A150" fill-opacity="0.58"/>
<circle cx="82.3" cy="543.2" r="2.2" fill="#276EF1" fill-opacity="0.58"/>
<circle cx="82.1" cy="543.2" r="2.2" fill="#12A150" fill-opacity="0.58"/>
<circle cx="82.3" cy="542.3" r="2.2" fill="#276EF1" fill-opacity="0.58"/>
<circle cx="82.1" cy="542.3" r="2.2" fill="#12A150" fill-opacity="0.58"/>
<circle cx="82.1" cy="541.3" r="2.2" fill="#276EF1" fill-opacity="0.58"/>
<circle cx="82.2" cy="541.3" r="2.2" fill="#276EF1" fill-opacity="0.58"/>
<circle cx="82.2" cy="539.5" r="2.2" fill="#276EF1" fill-opacity="0.58"/>
<circle cx="82.1" cy="537.6" r="2.2" fill="#12A150" fill-opacity="0.58"/>
<circle cx="82.5" cy="536.7" r="2.2" fill="#276EF1" fill-opacity="0.58"/>
<circle cx="82.8" cy="535.7" r="2.2" fill="#276EF1" fill-opacity="0.58"/>
<circle cx="82.8" cy="534.8" r="2.2" fill="#276EF1" fill-opacity="0.58"/>
<circle cx="82.8" cy="533.9" r="2.2" fill="#276EF1" fill-opacity="0.58"/>
<circle cx="82.8" cy="531.1" r="2.2" fill="#276EF1" fill-opacity="0.58"/>
<circle cx="83.1" cy="529.2" r="2.2" fill="#276EF1" fill-opacity="0.58"/>
<circle cx="82.7" cy="527.4" r="2.2" fill="#276EF1" fill-opacity="0.58"/>
<circle cx="82.8" cy="528.3" r="2.2" fill="#276EF1" fill-opacity="0.58"/>
<circle cx="82.9" cy="526.4" r="2.2" fill="#276EF1" fill-opacity="0.58"/>
<circle cx="82.8" cy="525.5" r="2.2" fill="#276EF1" fill-opacity="0.58"/>
<circle cx="83.3" cy="525.5" r="2.2" fill="#276EF1" fill-opacity="0.58"/>
<circle cx="83.3" cy="525.5" r="2.2" fill="#276EF1" fill-opacity="0.58"/>
<circle cx="82.8" cy="524.6" r="2.2" fill="#276EF1" fill-opacity="0.58"/>
<circle cx="83.7" cy="523.6" r="2.2" fill="#276EF1" fill-opacity="0.58"/>
<circle cx="82.9" cy="522.7" r="2.2" fill="#276EF1" fill-opacity="0.58"/>
<circle cx="83.2" cy="522.7" r="2.2" fill="#276EF1" fill-opacity="0.58"/>
<circle cx="83.3" cy="521.8" r="2.2" fill="#276EF1" fill-opacity="0.58"/>
<circle cx="82.8" cy="518.0" r="2.2" fill="#276EF1" fill-opacity="0.58"/>
<circle cx="82.7" cy="515.2" r="2.2" fill="#276EF1" fill-opacity="0.58"/>
<circle cx="83.6" cy="515.2" r="2.2" fill="#276EF1" fill-opacity="0.58"/>
<circle cx="83.2" cy="515.2" r="2.2" fill="#276EF1" fill-opacity="0.58"/>
<circle cx="82.9" cy="512.4" r="2.2" fill="#276EF1" fill-opacity="0.58"/>
<circle cx="82.6" cy="509.6" r="2.2" fill="#276EF1" fill-opacity="0.58"/>
<circle cx="83.6" cy="507.8" r="2.2" fill="#276EF1" fill-opacity="0.58"/>
<circle cx="83.8" cy="508.7" r="2.2" fill="#276EF1" fill-opacity="0.58"/>
<circle cx="84.0" cy="505.9" r="2.2" fill="#276EF1" fill-opacity="0.58"/>
<circle cx="83.5" cy="505.0" r="2.2" fill="#276EF1" fill-opacity="0.58"/>
<circle cx="83.8" cy="503.1" r="2.2" fill="#276EF1" fill-opacity="0.58"/>
<circle cx="84.5" cy="504.1" r="2.2" fill="#276EF1" fill-opacity="0.58"/>
<circle cx="84.5" cy="507.8" r="2.2" fill="#276EF1" fill-opacity="0.58"/>
<circle cx="84.3" cy="508.7" r="2.2" fill="#276EF1" fill-opacity="0.58"/>
<circle cx="84.0" cy="509.6" r="2.2" fill="#276EF1" fill-opacity="0.58"/>
<circle cx="83.7" cy="508.7" r="2.2" fill="#276EF1" fill-opacity="0.58"/>
<circle cx="84.4" cy="505.0" r="2.2" fill="#276EF1" fill-opacity="0.58"/>
<circle cx="84.0" cy="503.1" r="2.2" fill="#276EF1" fill-opacity="0.58"/>
<circle cx="83.6" cy="500.3" r="2.2" fill="#276EF1" fill-opacity="0.58"/>
<circle cx="84.5" cy="501.3" r="2.2" fill="#276EF1" fill-opacity="0.58"/>
<circle cx="84.2" cy="505.0" r="2.2" fill="#276EF1" fill-opacity="0.58"/>
<circle cx="84.1" cy="505.0" r="2.2" fill="#276EF1" fill-opacity="0.58"/>
<circle cx="83.8" cy="503.1" r="2.2" fill="#276EF1" fill-opacity="0.58"/>
<circle cx="83.8" cy="503.1" r="2.2" fill="#276EF1" fill-opacity="0.58"/>
<circle cx="84.6" cy="503.1" r="2.2" fill="#276EF1" fill-opacity="0.58"/>
<circle cx="84.0" cy="503.1" r="2.2" fill="#276EF1" fill-opacity="0.58"/>
<circle cx="84.5" cy="505.0" r="2.2" fill="#276EF1" fill-opacity="0.58"/>
<circle cx="84.8" cy="507.8" r="2.2" fill="#276EF1" fill-opacity="0.58"/>
<circle cx="83.8" cy="507.8" r="2.2" fill="#276EF1" fill-opacity="0.58"/>
<circle cx="84.2" cy="507.8" r="2.2" fill="#276EF1" fill-opacity="0.58"/>
<circle cx="83.7" cy="502.2" r="2.2" fill="#276EF1" fill-opacity="0.58"/>
<circle cx="83.9" cy="501.3" r="2.2" fill="#276EF1" fill-opacity="0.58"/>
<circle cx="84.7" cy="503.1" r="2.2" fill="#276EF1" fill-opacity="0.58"/>
<circle cx="84.5" cy="507.8" r="2.2" fill="#276EF1" fill-opacity="0.58"/>
<circle cx="85.3" cy="514.3" r="2.2" fill="#276EF1" fill-opacity="0.58"/>
<circle cx="85.4" cy="521.8" r="2.2" fill="#276EF1" fill-opacity="0.58"/>
<circle cx="83.5" cy="518.0" r="2.2" fill="#276EF1" fill-opacity="0.58"/>
<circle cx="84.2" cy="516.2" r="2.2" fill="#276EF1" fill-opacity="0.58"/>
<circle cx="85.3" cy="519.0" r="2.2" fill="#276EF1" fill-opacity="0.58"/>
<circle cx="84.9" cy="523.6" r="2.2" fill="#276EF1" fill-opacity="0.58"/>
<circle cx="84.0" cy="523.6" r="2.2" fill="#276EF1" fill-opacity="0.58"/>
<circle cx="82.8" cy="516.2" r="2.2" fill="#276EF1" fill-opacity="0.58"/>
<circle cx="82.9" cy="510.6" r="2.2" fill="#276EF1" fill-opacity="0.58"/>
<circle cx="84.3" cy="511.5" r="2.2" fill="#276EF1" fill-opacity="0.58"/>
<circle cx="84.5" cy="516.2" r="2.2" fill="#276EF1" fill-opacity="0.58"/>
<circle cx="85.1" cy="523.6" r="2.2" fill="#276EF1" fill-opacity="0.58"/>
<circle cx="84.5" cy="526.4" r="2.2" fill="#276EF1" fill-opacity="0.58"/>
<circle cx="83.0" cy="524.6" r="2.2" fill="#276EF1" fill-opacity="0.58"/>
<circle cx="83.5" cy="523.6" r="2.2" fill="#276EF1" fill-opacity="0.58"/>
<circle cx="83.4" cy="523.6" r="2.2" fill="#276EF1" fill-opacity="0.58"/>
<circle cx="83.6" cy="525.5" r="2.2" fill="#276EF1" fill-opacity="0.58"/>
<circle cx="84.3" cy="530.2" r="2.2" fill="#276EF1" fill-opacity="0.58"/>
<circle cx="83.4" cy="529.2" r="2.2" fill="#276EF1" fill-opacity="0.58"/>
<circle cx="83.3" cy="528.3" r="2.2" fill="#276EF1" fill-opacity="0.58"/>
<circle cx="83.6" cy="529.2" r="2.2" fill="#276EF1" fill-opacity="0.58"/>
<circle cx="83.8" cy="530.2" r="2.2" fill="#276EF1" fill-opacity="0.58"/>
<circle cx="84.0" cy="533.9" r="2.2" fill="#276EF1" fill-opacity="0.58"/>
<circle cx="83.9" cy="534.8" r="2.2" fill="#276EF1" fill-opacity="0.58"/>
<circle cx="83.6" cy="536.7" r="2.2" fill="#276EF1" fill-opacity="0.58"/>
<circle cx="83.0" cy="534.8" r="2.2" fill="#276EF1" fill-opacity="0.58"/>
<circle cx="83.8" cy="533.9" r="2.2" fill="#276EF1" fill-opacity="0.58"/>
<circle cx="82.7" cy="532.0" r="2.2" fill="#276EF1" fill-opacity="0.58"/>
<circle cx="84.4" cy="535.7" r="2.2" fill="#276EF1" fill-opacity="0.58"/>
<circle cx="83.8" cy="539.5" r="2.2" fill="#276EF1" fill-opacity="0.58"/>
<circle cx="82.7" cy="540.4" r="2.2" fill="#276EF1" fill-opacity="0.58"/>
<circle cx="83.2" cy="539.5" r="2.2" fill="#276EF1" fill-opacity="0.58"/>
<circle cx="83.7" cy="540.4" r="2.2" fill="#276EF1" fill-opacity="0.58"/>
<circle cx="83.5" cy="544.1" r="2.2" fill="#276EF1" fill-opacity="0.58"/>
<circle cx="83.5" cy="543.2" r="2.2" fill="#12A150" fill-opacity="0.58"/>
<circle cx="83.2" cy="542.3" r="2.2" fill="#12A150" fill-opacity="0.58"/>
<circle cx="83.0" cy="541.3" r="2.2" fill="#12A150" fill-opacity="0.58"/>
<circle cx="82.8" cy="541.3" r="2.2" fill="#12A150" fill-opacity="0.58"/>
<circle cx="82.7" cy="540.4" r="2.2" fill="#12A150" fill-opacity="0.58"/>
<circle cx="82.4" cy="540.4" r="2.2" fill="#12A150" fill-opacity="0.58"/>
<circle cx="82.2" cy="541.3" r="2.2" fill="#12A150" fill-opacity="0.58"/>
<circle cx="82.5" cy="541.3" r="2.2" fill="#12A150" fill-opacity="0.58"/>
<circle cx="82.4" cy="540.4" r="2.2" fill="#12A150" fill-opacity="0.58"/>
<circle cx="82.0" cy="540.4" r="2.2" fill="#12A150" fill-opacity="0.58"/>
<circle cx="82.2" cy="539.5" r="2.2" fill="#12A150" fill-opacity="0.58"/>
<circle cx="82.3" cy="539.5" r="2.2" fill="#12A150" fill-opacity="0.58"/>
<circle cx="132.1" cy="524.6" r="2.2" fill="#12A150" fill-opacity="0.58"/>
<circle cx="107.7" cy="497.5" r="2.2" fill="#276EF1" fill-opacity="0.58"/>
<circle cx="85.9" cy="497.5" r="2.2" fill="#12A150" fill-opacity="0.58"/>
<circle cx="82.6" cy="468.6" r="2.2" fill="#12A150" fill-opacity="0.58"/>
<circle cx="82.7" cy="438.8" r="2.2" fill="#276EF1" fill-opacity="0.58"/>
<circle cx="82.3" cy="452.8" r="2.2" fill="#276EF1" fill-opacity="0.58"/>
<circle cx="82.2" cy="451.9" r="2.2" fill="#12A150" fill-opacity="0.58"/>
<circle cx="82.3" cy="448.1" r="2.2" fill="#12A150" fill-opacity="0.58"/>
<circle cx="82.3" cy="459.3" r="2.2" fill="#12A150" fill-opacity="0.58"/>
<circle cx="83.8" cy="455.6" r="2.2" fill="#12A150" fill-opacity="0.58"/>
<circle cx="82.7" cy="464.9" r="2.2" fill="#12A150" fill-opacity="0.58"/>
<circle cx="82.1" cy="472.4" r="2.2" fill="#12A150" fill-opacity="0.58"/>
<circle cx="82.9" cy="473.3" r="2.2" fill="#12A150" fill-opacity="0.58"/>
<circle cx="82.2" cy="478.0" r="2.2" fill="#12A150" fill-opacity="0.58"/>
<circle cx="83.1" cy="478.9" r="2.2" fill="#12A150" fill-opacity="0.58"/>
<circle cx="82.4" cy="483.5" r="2.2" fill="#12A150" fill-opacity="0.58"/>
<circle cx="82.9" cy="483.5" r="2.2" fill="#12A150" fill-opacity="0.58"/>
<circle cx="83.0" cy="489.1" r="2.2" fill="#12A150" fill-opacity="0.58"/>
<circle cx="83.5" cy="489.1" r="2.2" fill="#12A150" fill-opacity="0.58"/>
<circle cx="83.4" cy="491.9" r="2.2" fill="#12A150" fill-opacity="0.58"/>
<circle cx="82.6" cy="493.8" r="2.2" fill="#12A150" fill-opacity="0.58"/>
<circle cx="82.2" cy="497.5" r="2.2" fill="#12A150" fill-opacity="0.58"/>
<circle cx="83.7" cy="361.4" r="2.2" fill="#276EF1" fill-opacity="0.58"/>
<circle cx="88.8" cy="386.6" r="2.2" fill="#276EF1" fill-opacity="0.58"/>
<circle cx="84.0" cy="412.7" r="2.2" fill="#276EF1" fill-opacity="0.58"/>
<circle cx="84.5" cy="428.5" r="2.2" fill="#12A150" fill-opacity="0.58"/>
<circle cx="84.4" cy="432.3" r="2.2" fill="#12A150" fill-opacity="0.58"/>
<circle cx="83.8" cy="386.6" r="2.2" fill="#276EF1" fill-opacity="0.58"/>
<circle cx="95.0" cy="382.9" r="2.2" fill="#276EF1" fill-opacity="0.58"/>
<circle cx="87.4" cy="372.6" r="2.2" fill="#276EF1" fill-opacity="0.58"/>
<circle cx="129.2" cy="449.1" r="2.2" fill="#276EF1" fill-opacity="0.58"/>
<circle cx="116.3" cy="480.7" r="2.2" fill="#12A150" fill-opacity="0.58"/>
<circle cx="85.1" cy="545.1" r="2.2" fill="#276EF1" fill-opacity="0.58"/>
<circle cx="113.4" cy="516.2" r="2.2" fill="#12A150" fill-opacity="0.58"/>
<circle cx="115.0" cy="498.5" r="2.2" fill="#276EF1" fill-opacity="0.58"/>
<circle cx="85.4" cy="296.2" r="2.2" fill="#276EF1" fill-opacity="0.58"/>
<circle cx="88.0" cy="381.9" r="2.2" fill="#276EF1" fill-opacity="0.58"/>
<circle cx="91.0" cy="346.5" r="2.2" fill="#276EF1" fill-opacity="0.58"/>
<circle cx="88.9" cy="436.0" r="2.2" fill="#276EF1" fill-opacity="0.58"/>
<circle cx="83.0" cy="431.3" r="2.2" fill="#12A150" fill-opacity="0.58"/>
<circle cx="84.2" cy="376.3" r="2.2" fill="#12A150" fill-opacity="0.58"/>
<circle cx="85.5" cy="368.9" r="2.2" fill="#276EF1" fill-opacity="0.58"/>
<circle cx="102.2" cy="439.7" r="2.2" fill="#276EF1" fill-opacity="0.58"/>
<circle cx="90.7" cy="457.4" r="2.2" fill="#276EF1" fill-opacity="0.58"/>
<circle cx="92.2" cy="474.2" r="2.2" fill="#276EF1" fill-opacity="0.58"/>
<circle cx="87.2" cy="528.3" r="2.2" fill="#276EF1" fill-opacity="0.58"/>
<circle cx="92.1" cy="513.4" r="2.2" fill="#276EF1" fill-opacity="0.58"/>
<circle cx="91.8" cy="409.9" r="2.2" fill="#276EF1" fill-opacity="0.58"/>
<circle cx="97.9" cy="138.6" r="3.0" fill="#D92D20" fill-opacity="0.58"/>
<circle cx="109.4" cy="313.0" r="2.2" fill="#276EF1" fill-opacity="0.58"/>
<circle cx="103.9" cy="463.0" r="2.2" fill="#276EF1" fill-opacity="0.58"/>
<circle cx="85.3" cy="444.4" r="2.2" fill="#276EF1" fill-opacity="0.58"/>
<circle cx="87.9" cy="393.1" r="2.2" fill="#12A150" fill-opacity="0.58"/>
<circle cx="97.4" cy="347.4" r="2.2" fill="#12A150" fill-opacity="0.58"/>
<circle cx="118.8" cy="486.3" r="2.2" fill="#12A150" fill-opacity="0.58"/>
<circle cx="114.0" cy="453.7" r="2.2" fill="#276EF1" fill-opacity="0.58"/>
<circle cx="97.8" cy="472.4" r="2.2" fill="#276EF1" fill-opacity="0.58"/>
<circle cx="82.2" cy="503.1" r="2.2" fill="#12A150" fill-opacity="0.58"/>
<circle cx="94.5" cy="531.1" r="2.2" fill="#12A150" fill-opacity="0.58"/>
<circle cx="107.3" cy="495.7" r="2.2" fill="#12A150" fill-opacity="0.58"/>
<circle cx="96.4" cy="263.6" r="2.2" fill="#12A150" fill-opacity="0.58"/>
<circle cx="87.1" cy="535.7" r="2.2" fill="#276EF1" fill-opacity="0.58"/>
<circle cx="84.9" cy="468.6" r="2.2" fill="#12A150" fill-opacity="0.58"/>
<circle cx="84.2" cy="436.0" r="2.2" fill="#12A150" fill-opacity="0.58"/>
<circle cx="90.0" cy="529.2" r="2.2" fill="#12A150" fill-opacity="0.58"/>
<circle cx="91.2" cy="482.6" r="2.2" fill="#276EF1" fill-opacity="0.58"/>
<circle cx="82.0" cy="349.3" r="2.2" fill="#12A150" fill-opacity="0.58"/>
<circle cx="125.4" cy="505.0" r="2.2" fill="#276EF1" fill-opacity="0.58"/>
<circle cx="102.2" cy="541.3" r="2.2" fill="#276EF1" fill-opacity="0.58"/>
<circle cx="86.2" cy="492.9" r="2.2" fill="#12A150" fill-opacity="0.58"/>
<circle cx="92.7" cy="523.6" r="2.2" fill="#12A150" fill-opacity="0.58"/>
<circle cx="111.8" cy="516.2" r="2.2" fill="#276EF1" fill-opacity="0.58"/>
<circle cx="122.7" cy="544.1" r="2.2" fill="#12A150" fill-opacity="0.58"/>
<circle cx="85.4" cy="396.9" r="2.2" fill="#276EF1" fill-opacity="0.58"/>
<circle cx="85.4" cy="441.6" r="2.2" fill="#12A150" fill-opacity="0.58"/>
<circle cx="88.0" cy="353.0" r="2.2" fill="#12A150" fill-opacity="0.58"/>
<circle cx="85.3" cy="416.4" r="2.2" fill="#276EF1" fill-opacity="0.58"/>
<circle cx="88.1" cy="444.4" r="2.2" fill="#276EF1" fill-opacity="0.58"/>
<circle cx="87.0" cy="438.8" r="2.2" fill="#12A150" fill-opacity="0.58"/>
<circle cx="85.6" cy="361.4" r="2.2" fill="#276EF1" fill-opacity="0.58"/>
<circle cx="91.3" cy="537.6" r="2.2" fill="#276EF1" fill-opacity="0.58"/>
<circle cx="82.3" cy="423.9" r="2.2" fill="#12A150" fill-opacity="0.58"/>
<circle cx="90.3" cy="423.9" r="2.2" fill="#276EF1" fill-opacity="0.58"/>
<circle cx="88.7" cy="444.4" r="2.2" fill="#276EF1" fill-opacity="0.58"/>
<circle cx="86.8" cy="472.4" r="2.2" fill="#276EF1" fill-opacity="0.58"/>
<circle cx="89.1" cy="525.5" r="2.2" fill="#12A150" fill-opacity="0.58"/>
<circle cx="97.4" cy="479.8" r="2.2" fill="#276EF1" fill-opacity="0.58"/>
<circle cx="104.4" cy="169.4" r="3.0" fill="#D92D20" fill-opacity="0.58"/>
<circle cx="108.2" cy="370.8" r="2.2" fill="#276EF1" fill-opacity="0.58"/>
<circle cx="97.9" cy="460.2" r="2.2" fill="#276EF1" fill-opacity="0.58"/>
<circle cx="83.4" cy="425.7" r="2.2" fill="#12A150" fill-opacity="0.58"/>
<circle cx="87.8" cy="369.8" r="2.2" fill="#12A150" fill-opacity="0.58"/>
<circle cx="87.0" cy="334.4" r="2.2" fill="#12A150" fill-opacity="0.58"/>
<circle cx="155.7" cy="413.6" r="2.2" fill="#276EF1" fill-opacity="0.58"/>
<circle cx="134.5" cy="294.3" r="2.2" fill="#276EF1" fill-opacity="0.58"/>
<circle cx="111.3" cy="457.4" r="2.2" fill="#276EF1" fill-opacity="0.58"/>
<circle cx="109.9" cy="494.7" r="2.2" fill="#276EF1" fill-opacity="0.58"/>
<circle cx="105.8" cy="488.2" r="2.2" fill="#12A150" fill-opacity="0.58"/>
<circle cx="113.8" cy="416.4" r="2.2" fill="#276EF1" fill-opacity="0.58"/>
<circle cx="94.3" cy="536.7" r="2.2" fill="#276EF1" fill-opacity="0.58"/>
<circle cx="116.5" cy="359.6" r="2.2" fill="#12A150" fill-opacity="0.58"/>
<circle cx="100.3" cy="513.4" r="2.2" fill="#12A150" fill-opacity="0.58"/>
<circle cx="93.6" cy="512.4" r="2.2" fill="#12A150" fill-opacity="0.58"/>
<circle cx="94.5" cy="487.3" r="2.2" fill="#276EF1" fill-opacity="0.58"/>
<circle cx="95.5" cy="424.8" r="2.2" fill="#12A150" fill-opacity="0.58"/>
<circle cx="83.9" cy="466.8" r="2.2" fill="#276EF1" fill-opacity="0.58"/>
<circle cx="85.6" cy="498.5" r="2.2" fill="#12A150" fill-opacity="0.58"/>
<circle cx="83.7" cy="506.8" r="2.2" fill="#276EF1" fill-opacity="0.58"/>
<circle cx="85.0" cy="526.4" r="2.2" fill="#276EF1" fill-opacity="0.58"/>
<circle cx="82.7" cy="521.8" r="2.2" fill="#276EF1" fill-opacity="0.58"/>
<circle cx="84.9" cy="459.3" r="2.2" fill="#276EF1" fill-opacity="0.58"/>
<circle cx="85.5" cy="504.1" r="2.2" fill="#276EF1" fill-opacity="0.58"/>
<circle cx="87.1" cy="465.8" r="2.2" fill="#276EF1" fill-opacity="0.58"/>
<circle cx="86.3" cy="272.9" r="2.2" fill="#276EF1" fill-opacity="0.58"/>
<circle cx="96.5" cy="471.4" r="2.2" fill="#276EF1" fill-opacity="0.58"/>
<circle cx="85.9" cy="439.7" r="2.2" fill="#12A150" fill-opacity="0.58"/>
<circle cx="88.5" cy="515.2" r="2.2" fill="#276EF1" fill-opacity="0.58"/>
<circle cx="88.5" cy="395.0" r="2.2" fill="#12A150" fill-opacity="0.58"/>
<circle cx="86.3" cy="474.2" r="2.2" fill="#276EF1" fill-opacity="0.58"/>
<circle cx="122.2" cy="443.5" r="2.2" fill="#276EF1" fill-opacity="0.58"/>
<circle cx="102.7" cy="420.2" r="2.2" fill="#276EF1" fill-opacity="0.58"/>
<circle cx="105.7" cy="425.7" r="2.2" fill="#276EF1" fill-opacity="0.58"/>
<circle cx="101.1" cy="483.5" r="2.2" fill="#276EF1" fill-opacity="0.58"/>
<circle cx="92.0" cy="505.0" r="2.2" fill="#276EF1" fill-opacity="0.58"/>
<circle cx="92.3" cy="450.9" r="2.2" fill="#276EF1" fill-opacity="0.58"/>
<circle cx="96.9" cy="539.5" r="2.2" fill="#276EF1" fill-opacity="0.58"/>
<circle cx="99.3" cy="519.0" r="2.2" fill="#12A150" fill-opacity="0.58"/>
<circle cx="101.5" cy="477.0" r="2.2" fill="#12A150" fill-opacity="0.58"/>
<circle cx="109.9" cy="500.3" r="2.2" fill="#12A150" fill-opacity="0.58"/>
<circle cx="95.6" cy="499.4" r="2.2" fill="#12A150" fill-opacity="0.58"/>
<circle cx="99.5" cy="368.0" r="2.2" fill="#276EF1" fill-opacity="0.58"/>
<circle cx="88.6" cy="436.0" r="2.2" fill="#276EF1" fill-opacity="0.58"/>
<circle cx="84.4" cy="454.6" r="2.2" fill="#12A150" fill-opacity="0.58"/>
<circle cx="83.2" cy="479.8" r="2.2" fill="#12A150" fill-opacity="0.58"/>
<circle cx="86.4" cy="504.1" r="2.2" fill="#12A150" fill-opacity="0.58"/>
<circle cx="86.8" cy="524.6" r="2.2" fill="#12A150" fill-opacity="0.58"/>
<circle cx="90.8" cy="540.4" r="2.2" fill="#12A150" fill-opacity="0.58"/>
<circle cx="83.0" cy="399.6" r="2.2" fill="#276EF1" fill-opacity="0.58"/>
<circle cx="127.6" cy="399.6" r="2.2" fill="#276EF1" fill-opacity="0.58"/>
<circle cx="126.5" cy="518.0" r="2.2" fill="#12A150" fill-opacity="0.58"/>
<circle cx="92.9" cy="533.9" r="2.2" fill="#276EF1" fill-opacity="0.58"/>
<circle cx="99.3" cy="465.8" r="2.2" fill="#12A150" fill-opacity="0.58"/>
<circle cx="123.1" cy="536.7" r="2.2" fill="#12A150" fill-opacity="0.58"/>
<circle cx="121.5" cy="543.2" r="2.2" fill="#12A150" fill-opacity="0.58"/>
<circle cx="86.2" cy="326.9" r="2.2" fill="#276EF1" fill-opacity="0.58"/>
<circle cx="85.1" cy="502.2" r="2.2" fill="#276EF1" fill-opacity="0.58"/>
<circle cx="87.8" cy="380.1" r="2.2" fill="#12A150" fill-opacity="0.58"/>
<circle cx="89.3" cy="467.7" r="2.2" fill="#12A150" fill-opacity="0.58"/>
<circle cx="92.4" cy="473.3" r="2.2" fill="#276EF1" fill-opacity="0.58"/>
<circle cx="86.8" cy="312.0" r="2.2" fill="#276EF1" fill-opacity="0.58"/>
<circle cx="87.8" cy="297.1" r="2.2" fill="#12A150" fill-opacity="0.58"/>
<circle cx="111.4" cy="487.3" r="2.2" fill="#276EF1" fill-opacity="0.58"/>
<circle cx="106.5" cy="472.4" r="2.2" fill="#12A150" fill-opacity="0.58"/>
<circle cx="87.6" cy="499.4" r="2.2" fill="#12A150" fill-opacity="0.58"/>
<circle cx="95.7" cy="495.7" r="2.2" fill="#12A150" fill-opacity="0.58"/>
<circle cx="99.4" cy="454.6" r="2.2" fill="#12A150" fill-opacity="0.58"/>
<circle cx="102.5" cy="513.4" r="2.2" fill="#12A150" fill-opacity="0.58"/>
<circle cx="111.0" cy="412.7" r="2.2" fill="#276EF1" fill-opacity="0.58"/>
<circle cx="104.4" cy="378.2" r="2.2" fill="#276EF1" fill-opacity="0.58"/>
<circle cx="89.4" cy="420.2" r="2.2" fill="#276EF1" fill-opacity="0.58"/>
<circle cx="86.7" cy="490.1" r="2.2" fill="#276EF1" fill-opacity="0.58"/>
<circle cx="87.3" cy="492.9" r="2.2" fill="#276EF1" fill-opacity="0.58"/>
<circle cx="86.5" cy="521.8" r="2.2" fill="#12A150" fill-opacity="0.58"/>
<circle cx="86.0" cy="495.7" r="2.2" fill="#12A150" fill-opacity="0.58"/>
<circle cx="82.3" cy="537.6" r="2.2" fill="#12A150" fill-opacity="0.58"/>
<circle cx="82.7" cy="545.1" r="2.2" fill="#12A150" fill-opacity="0.58"/>
<circle cx="82.2" cy="484.5" r="2.2" fill="#12A150" fill-opacity="0.58"/>
<circle cx="83.4" cy="512.4" r="2.2" fill="#12A150" fill-opacity="0.58"/>
<circle cx="82.9" cy="514.3" r="2.2" fill="#12A150" fill-opacity="0.58"/>
<circle cx="82.7" cy="515.2" r="2.2" fill="#12A150" fill-opacity="0.58"/>
<circle cx="82.2" cy="523.6" r="2.2" fill="#12A150" fill-opacity="0.58"/>
<circle cx="82.1" cy="535.7" r="2.2" fill="#12A150" fill-opacity="0.58"/>
<circle cx="82.0" cy="543.2" r="2.2" fill="#12A150" fill-opacity="0.58"/>
<circle cx="83.1" cy="544.1" r="2.2" fill="#12A150" fill-opacity="0.58"/>
<circle cx="82.1" cy="538.5" r="2.2" fill="#276EF1" fill-opacity="0.58"/>
<circle cx="82.3" cy="546.0" r="2.2" fill="#12A150" fill-opacity="0.58"/>
<circle cx="82.6" cy="542.3" r="2.2" fill="#12A150" fill-opacity="0.58"/>
<circle cx="82.5" cy="537.6" r="2.2" fill="#12A150" fill-opacity="0.58"/>
<circle cx="82.1" cy="536.7" r="2.2" fill="#12A150" fill-opacity="0.58"/>
<circle cx="82.3" cy="540.4" r="2.2" fill="#276EF1" fill-opacity="0.58"/>
<circle cx="82.2" cy="542.3" r="2.2" fill="#12A150" fill-opacity="0.58"/>
<circle cx="82.3" cy="546.0" r="2.2" fill="#12A150" fill-opacity="0.58"/>
<circle cx="82.7" cy="541.3" r="2.2" fill="#276EF1" fill-opacity="0.58"/>
<circle cx="84.0" cy="538.5" r="2.2" fill="#276EF1" fill-opacity="0.58"/>
<circle cx="82.6" cy="529.2" r="2.2" fill="#12A150" fill-opacity="0.58"/>
<circle cx="83.0" cy="526.4" r="2.2" fill="#12A150" fill-opacity="0.58"/>
<circle cx="82.3" cy="531.1" r="2.2" fill="#12A150" fill-opacity="0.58"/>
<circle cx="82.0" cy="535.7" r="2.2" fill="#12A150" fill-opacity="0.58"/>
<circle cx="82.7" cy="539.5" r="2.2" fill="#276EF1" fill-opacity="0.58"/>
<circle cx="82.0" cy="534.8" r="2.2" fill="#12A150" fill-opacity="0.58"/>
<circle cx="82.0" cy="534.8" r="2.2" fill="#12A150" fill-opacity="0.58"/>
<circle cx="82.2" cy="536.7" r="2.2" fill="#12A150" fill-opacity="0.58"/>
<circle cx="82.0" cy="535.7" r="2.2" fill="#12A150" fill-opacity="0.58"/>
<circle cx="82.3" cy="535.7" r="2.2" fill="#276EF1" fill-opacity="0.58"/>
<circle cx="82.7" cy="534.8" r="2.2" fill="#276EF1" fill-opacity="0.58"/>
<circle cx="82.1" cy="533.9" r="2.2" fill="#276EF1" fill-opacity="0.58"/>
<circle cx="82.1" cy="532.0" r="2.2" fill="#276EF1" fill-opacity="0.58"/>
<circle cx="82.0" cy="533.9" r="2.2" fill="#12A150" fill-opacity="0.58"/>
<circle cx="82.5" cy="531.1" r="2.2" fill="#12A150" fill-opacity="0.58"/>
<circle cx="82.1" cy="533.9" r="2.2" fill="#276EF1" fill-opacity="0.58"/>
<circle cx="83.0" cy="531.1" r="2.2" fill="#12A150" fill-opacity="0.58"/>
<circle cx="82.1" cy="532.0" r="2.2" fill="#12A150" fill-opacity="0.58"/>
<circle cx="83.1" cy="525.5" r="2.2" fill="#12A150" fill-opacity="0.58"/>
<circle cx="82.1" cy="523.6" r="2.2" fill="#276EF1" fill-opacity="0.58"/>
<circle cx="82.0" cy="525.5" r="2.2" fill="#276EF1" fill-opacity="0.58"/>
<circle cx="82.0" cy="529.2" r="2.2" fill="#12A150" fill-opacity="0.58"/>
<circle cx="82.2" cy="530.2" r="2.2" fill="#276EF1" fill-opacity="0.58"/>
<circle cx="82.1" cy="531.1" r="2.2" fill="#276EF1" fill-opacity="0.58"/>
<circle cx="82.1" cy="531.1" r="2.2" fill="#276EF1" fill-opacity="0.58"/>
<circle cx="82.2" cy="529.2" r="2.2" fill="#276EF1" fill-opacity="0.58"/>
<circle cx="82.7" cy="527.4" r="2.2" fill="#12A150" fill-opacity="0.58"/>
<circle cx="82.1" cy="528.3" r="2.2" fill="#276EF1" fill-opacity="0.58"/>
<circle cx="82.1" cy="529.2" r="2.2" fill="#276EF1" fill-opacity="0.58"/>
<circle cx="82.2" cy="529.2" r="2.2" fill="#276EF1" fill-opacity="0.58"/>
<circle cx="82.1" cy="529.2" r="2.2" fill="#276EF1" fill-opacity="0.58"/>
<circle cx="82.9" cy="532.0" r="2.2" fill="#276EF1" fill-opacity="0.58"/>
<circle cx="82.0" cy="530.2" r="2.2" fill="#276EF1" fill-opacity="0.58"/>
<circle cx="82.1" cy="531.1" r="2.2" fill="#276EF1" fill-opacity="0.58"/>
<circle cx="82.3" cy="531.1" r="2.2" fill="#276EF1" fill-opacity="0.58"/>
<circle cx="82.1" cy="529.2" r="2.2" fill="#276EF1" fill-opacity="0.58"/>
<circle cx="82.2" cy="528.3" r="2.2" fill="#12A150" fill-opacity="0.58"/>
<circle cx="82.1" cy="528.3" r="2.2" fill="#276EF1" fill-opacity="0.58"/>
<circle cx="82.6" cy="528.3" r="2.2" fill="#276EF1" fill-opacity="0.58"/>
<circle cx="82.2" cy="528.3" r="2.2" fill="#276EF1" fill-opacity="0.58"/>
<circle cx="82.2" cy="531.1" r="2.2" fill="#276EF1" fill-opacity="0.58"/>
<circle cx="82.3" cy="528.3" r="2.2" fill="#12A150" fill-opacity="0.58"/>
<circle cx="82.4" cy="529.2" r="2.2" fill="#276EF1" fill-opacity="0.58"/>
<circle cx="82.1" cy="528.3" r="2.2" fill="#12A150" fill-opacity="0.58"/>
<circle cx="82.2" cy="528.3" r="2.2" fill="#12A150" fill-opacity="0.58"/>
<circle cx="82.3" cy="529.2" r="2.2" fill="#12A150" fill-opacity="0.58"/>
<circle cx="82.2" cy="527.4" r="2.2" fill="#276EF1" fill-opacity="0.58"/>
<circle cx="82.3" cy="528.3" r="2.2" fill="#12A150" fill-opacity="0.58"/>
<circle cx="82.1" cy="528.3" r="2.2" fill="#276EF1" fill-opacity="0.58"/>
<circle cx="82.3" cy="529.2" r="2.2" fill="#12A150" fill-opacity="0.58"/>
<circle cx="82.5" cy="531.1" r="2.2" fill="#276EF1" fill-opacity="0.58"/>
<circle cx="82.2" cy="531.1" r="2.2" fill="#276EF1" fill-opacity="0.58"/>
<circle cx="100" cy="60" r="4" fill="#276EF1" fill-opacity="0.75"/>
<text class="legend" x="116" y="64">same direction sample</text>
<circle cx="100" cy="81" r="4" fill="#12A150" fill-opacity="0.75"/>
<text class="legend" x="116" y="85">opposite direction sample</text>
<circle cx="100" cy="102" r="4" fill="#D92D20" fill-opacity="0.75"/>
<text class="legend" x="116" y="106">over limit sample</text>
<line x1="94" y1="123" x2="108" y2="123" stroke="#174EA6" stroke-width="3"/>
<text class="legend" x="116" y="127">Y1 same dir 20.2 N*m</text>
<line x1="94" y1="144" x2="108" y2="144" stroke="#0E7C59" stroke-width="3" stroke-dasharray="8 5"/>
<text class="legend" x="116" y="148">Y2 opposite 23.4 N*m</text>
<text class="small" x="930" y="598" text-anchor="end">samples 527, plotted 527, over limit 2</text>
</svg>
